<svg version="1.1" id="Layer_1" xmlns="http://www.w3.org/2000/svg" xmlns:xlink="http://www.w3.org/1999/xlink" x="0px" y="0px"
	 width="100%" viewBox="0 0 1024 592" enable-background="new 0 0 1024 592" xml:space="preserve">
<path fill="#000000" opacity="1.000000" stroke="none" 
	d="
M433.772583,378.797668 
	C433.752350,329.024597 433.739899,279.729309 433.736084,230.434021 
	C433.735535,223.719879 433.755493,223.685944 440.236359,223.684601 
	C489.365112,223.674408 538.494141,223.755737 587.622192,223.565155 
	C592.838684,223.544937 594.096985,225.352798 594.084717,230.182938 
	C593.960083,279.144745 593.963806,328.107117 594.082825,377.068939 
	C594.093994,381.655121 592.978149,383.451996 587.955261,383.433594 
	C538.660583,383.252808 489.365021,383.327209 440.069733,383.300934 
	C437.192352,383.299408 433.634583,384.112762 433.772583,378.797668 
M519.500000,241.271484 
	C498.844574,241.269348 478.187866,241.388916 457.534698,241.172180 
	C452.868835,241.123230 451.203339,242.298737 451.229126,247.263397 
	C451.423828,284.742004 451.421112,322.222504 451.231079,359.701172 
	C451.206268,364.596863 452.744843,365.856720 457.475250,365.834961 
	C494.954102,365.662262 532.434387,365.652252 569.913147,365.831024 
	C574.834778,365.854492 576.104675,364.178070 576.087158,359.504242 
	C575.946777,322.025238 575.953552,284.545135 576.110718,247.066208 
	C576.130432,242.363129 574.433289,241.143768 569.971985,241.201065 
	C553.483704,241.412842 536.991028,241.277359 519.500000,241.271484 
z"/>
<path fill="#000000" opacity="1.000000" stroke="none" 
	d="
M417.980713,460.708008 
	C422.261200,460.711578 426.046631,460.711578 429.832031,460.711578 
	C428.141235,462.468201 426.275940,462.169067 424.508026,462.177094 
	C402.857605,462.275208 381.206970,462.319824 359.556335,462.351410 
	C357.131500,462.354950 354.303558,462.655914 355.235565,457.707733 
	C357.088776,460.826111 359.552063,460.670319 362.025604,460.669067 
	C380.512268,460.659882 398.998962,460.688019 417.980713,460.708008 
z"/>
<path fill="#000000" opacity="1.000000" stroke="none" 
	d="
M667.846252,462.356079 
	C662.609619,462.357178 657.856079,462.357178 653.102600,462.357178 
	C653.102295,461.806885 653.101990,461.256622 653.101685,460.706329 
	C656.046936,460.706329 658.992737,460.740204 661.937439,460.700134 
	C671.748291,460.566589 670.861877,461.672363 670.906982,451.381317 
	C670.918640,448.723755 671.086243,446.064240 671.274597,443.412170 
	C671.314941,442.844208 671.755859,442.304718 673.167847,441.832336 
	C673.167847,447.679626 673.279480,453.529907 673.122192,459.372986 
	C673.039673,462.438019 670.530701,462.316681 667.846252,462.356079 
z"/>
<path fill="#000000" opacity="1.000000" stroke="none" 
	d="
M511.105743,73.128929 
	C511.909149,69.630585 513.691650,71.494041 515.169006,72.079895 
	C516.294739,72.526306 517.185791,73.276276 516.885681,74.696686 
	C516.520996,76.422554 515.065979,76.385765 513.779114,76.475166 
	C511.641754,76.623650 510.776062,75.565941 511.105743,73.128929 
z"/>
</svg>